<?xml version="1.0" encoding="UTF-8"?>
<svg id="Layer_1" data-name="Layer 1" xmlns="http://www.w3.org/2000/svg" viewBox="0 0 431.88 431.88">
  <style>
    .cls { fill: #ffffff; }
  </style>
  <g id="_Radial_Repeat_">
    <polygon class="cls" points="272.73 350.69 265.98 241.99 253.46 247.26 225.17 329.78 256.39 360.39 272.73 350.69"/>
  </g>
  <g id="_Radial_Repeat_-2">
    <polygon class="cls" points="162.1 348.28 234.19 266.64 221.61 261.52 143.25 299.87 143.69 343.59 162.1 348.28"/>
  </g>
  <g id="_Radial_Repeat_-3">
    <polygon class="cls" points="85.57 268.35 194.27 261.6 189 249.08 106.48 220.8 75.87 252.01 85.57 268.35"/>
  </g>
  <g id="_Radial_Repeat_-4">
    <polygon class="cls" points="87.98 157.72 169.61 229.81 174.74 217.23 136.39 138.88 92.67 139.31 87.98 157.72"/>
  </g>
  <g id="_Radial_Repeat_-5">
    <polygon class="cls" points="167.91 81.2 174.66 189.89 187.17 184.63 215.46 102.1 184.24 71.49 167.91 81.2"/>
  </g>
  <g id="_Radial_Repeat_-6">
    <polygon class="cls" points="278.53 83.6 206.45 165.24 219.02 170.36 297.38 132.01 296.95 88.29 278.53 83.6"/>
  </g>
  <g id="_Radial_Repeat_-7">
    <polygon class="cls" points="355.06 163.53 246.36 170.28 251.63 182.8 334.16 211.08 364.76 179.87 355.06 163.53"/>
  </g>
  <g id="_Radial_Repeat_-8">
    <polygon class="cls" points="352.66 274.16 271.02 202.07 265.9 214.65 304.25 293 347.97 292.57 352.66 274.16"/>
  </g>
</svg>
